<!-- Generated by IcoMoon.io -->
<svg version="1.1" xmlns="http://www.w3.org/2000/svg" width="1600" height="1024" viewBox="0 0 1600 1024">
<title></title>
<g id="icomoon-ignore">
</g>
<path fill="#73af00" d="M0 679.36h1555.456v312.896c-0.036 14.818-12.057 26.816-26.88 26.816 0 0 0 0 0 0h-1501.696c0 0 0 0 0 0-14.823 0-26.843-11.998-26.88-26.812v-0.004z"></path>
<path fill="#82afff" d="M26.816 0h1501.824c14.795 0.036 26.78 12.021 26.816 26.813v312.899h-1555.456v-312.896c0.036-14.795 12.021-26.78 26.813-26.816h0.003z"></path>
<path fill="#ff4b55" d="M0 679.36v-339.648h1555.456v339.648z"></path>
<path fill="#f5f5f5" d="M814.272 620.8c-60.248 0-109.088-48.84-109.088-109.088s48.84-109.088 109.088-109.088v0c22.4 0 43.072 6.912 60.288 18.56 2.56 1.792 5.632-1.664 3.392-3.968-24.642-25.745-59.283-41.747-97.661-41.747-1.667 0-3.326 0.030-4.978 0.090l0.239-0.007c-69.912 2.823-126.154 57.668-131.174 126.723l-0.026 0.445c-0.188 2.68-0.295 5.807-0.295 8.96 0 75.221 60.953 136.205 136.162 136.256h0.005c38.528 0 73.152-16.128 97.856-41.856 2.176-2.24-0.832-5.696-3.456-3.904-17.216 11.648-37.888 18.56-60.352 18.56z"></path>
<path fill="#f5f5f5" d="M909.696 444.544l11.328 31.808 30.464-14.464c0.361-0.192 0.789-0.305 1.243-0.305 1.485 0 2.688 1.203 2.688 2.688 0 0.438-0.105 0.851-0.29 1.216l0.007-0.015-14.528 30.464 31.808 11.328c1.093 0.358 1.868 1.368 1.868 2.56s-0.776 2.202-1.849 2.555l-0.019 0.005-31.808 11.264 14.528 30.528c0.178 0.35 0.283 0.763 0.283 1.201 0 1.485-1.203 2.688-2.688 2.688-0.454 0-0.882-0.113-1.258-0.312l0.015 0.007-30.464-14.528-11.328 31.808c-0.358 1.093-1.368 1.868-2.56 1.868s-2.202-0.776-2.555-1.849l-0.005-0.019-11.264-31.808-30.464 14.528c-0.339 0.166-0.737 0.262-1.158 0.262-1.485 0-2.688-1.203-2.688-2.688 0-0.421 0.097-0.82 0.269-1.174l-0.007 0.016 14.464-30.528-31.808-11.264c-1.093-0.358-1.868-1.368-1.868-2.56s0.776-2.202 1.849-2.555l0.019-0.005 31.808-11.328-14.464-30.464c-0.166-0.339-0.262-0.737-0.262-1.158 0-1.485 1.203-2.688 2.688-2.688 0.421 0 0.82 0.097 1.174 0.269l-0.016-0.007 30.464 14.464 11.328-31.808c0.358-1.093 1.368-1.868 2.56-1.868s2.202 0.776 2.555 1.849l0.005 0.019z"></path>
</svg>
