<!-- Generated by IcoMoon.io -->
<svg version="1.1" xmlns="http://www.w3.org/2000/svg" width="1600" height="1024" viewBox="0 0 1600 1024">
<title></title>
<g id="icomoon-ignore">
</g>
<path fill="#41479b" d="M1576.192 1019.072h-1501.824c-14.818-0.036-26.816-12.057-26.816-26.88 0 0 0 0 0 0v0-965.312c0-14.845 12.035-26.88 26.88-26.88v0h1501.76c14.795 0.036 26.78 12.021 26.816 26.813v965.443c-0.036 14.818-12.057 26.816-26.88 26.816 0 0 0 0 0 0v0z"></path>
<path fill="#f5f5f5" d="M1603.008 26.816c-0.036-14.818-12.057-26.816-26.88-26.816 0 0 0 0 0 0h-119.936l-496.832 325.504v-325.504h-268.16v325.504l-496.832-325.504h-120c-14.795 0.036-26.78 12.021-26.816 26.813v69.379l426.24 279.232h-426.176v268.16h426.24l-426.24 279.296v69.376c0.036 14.818 12.057 26.816 26.88 26.816 0 0 0 0 0 0h119.936l496.832-325.504v325.504h268.16v-325.504l496.832 325.504h120c14.818-0.036 26.816-12.057 26.816-26.88 0 0 0 0 0 0v0-69.312l-426.24-279.232h426.24v-268.16h-426.24l426.24-279.296z"></path>
<path fill="#ff4b55" d="M1603.008 429.056h-697.28v-429.056h-160.896v429.056h-697.28v161.024h697.28v429.056h160.896v-429.12h697.28z"></path>
<path fill="#ff4b55" d="M591.232 643.648l-542.912 352.384c1.92 12.928 12.608 23.040 26.048 23.040h36.992l578.368-375.424h-98.56z"></path>
<path fill="#ff4b55" d="M1099.904 643.648h-98.56l577.6 374.848c13.486-1.31 23.956-12.536 24.064-26.229v-22.091z"></path>
<path fill="#ff4b55" d="M47.552 56.448l491.52 318.976h98.496l-574.336-372.8c-9.288 4.28-15.63 13.489-15.68 24.186v0.006z"></path>
<path fill="#ff4b55" d="M1057.92 375.424l544.128-353.216c-2.094-12.59-12.848-22.088-25.843-22.208h-38.413l-578.432 375.424z"></path>
</svg>
