<?xml version="1.0" encoding="UTF-8" standalone="no"?>
<svg
   width="130"
   height="130"
   viewBox="0 0 130 130"
   version="1.1"
   id="svg66"
   sodipodi:docname="14-layers.svg"
   inkscape:version="1.2.2 (732a01da63, 2022-12-09, custom)"
   xmlns:inkscape="http://www.inkscape.org/namespaces/inkscape"
   xmlns:sodipodi="http://sodipodi.sourceforge.net/DTD/sodipodi-0.dtd"
   xmlns="http://www.w3.org/2000/svg"
   xmlns:svg="http://www.w3.org/2000/svg">
  <defs
     id="defs70" />
  <sodipodi:namedview
     id="namedview68"
     pagecolor="#ffffff"
     bordercolor="#666666"
     borderopacity="1.0"
     inkscape:showpageshadow="2"
     inkscape:pageopacity="0.0"
     inkscape:pagecheckerboard="0"
     inkscape:deskcolor="#d1d1d1"
     showgrid="false"
     showguides="true"
     inkscape:zoom="4.9884615"
     inkscape:cx="58.735544"
     inkscape:cy="55.127217"
     inkscape:window-width="1920"
     inkscape:window-height="1043"
     inkscape:window-x="0"
     inkscape:window-y="0"
     inkscape:window-maximized="1"
     inkscape:current-layer="g60">
    <sodipodi:guide
       position="8.6154231,64.929586"
       orientation="0,-1"
       id="guide353"
       inkscape:locked="false" />
  </sodipodi:namedview>
  <g
     id="g64">
    <g
       id="g62">
      <g
         id="g60">
        <g
           id="g20"
           transform="translate(0,42)">
          <path
             fill="#5a9c31"
             d="m 125.867,38.375 v 2.62 h 0.862 c 0.267,0 0.495,-0.008 0.685,-0.027 0.189,-0.016 0.359,-0.049 0.509,-0.095 0.303,-0.093 0.537,-0.24 0.701,-0.444 0.165,-0.202 0.247,-0.47 0.247,-0.797 -0.003,-0.306 -0.082,-0.553 -0.236,-0.741 a 1.28,1.28 0 0 0 -0.637,-0.405 2.384,2.384 0 0 0 -0.46,-0.083 6.936,6.936 0 0 0 -0.68,-0.028 z m 0,3.41 -0.001,2.96 h -0.878 l 0.002,-7.16 h 1.858 c 0.315,0 0.581,0.011 0.8,0.035 0.22,0.024 0.421,0.06 0.602,0.11 0.5,0.135 0.883,0.367 1.146,0.695 0.265,0.325 0.396,0.734 0.396,1.222 0,0.29 -0.045,0.549 -0.139,0.777 a 1.79,1.79 0 0 1 -0.39,0.596 c -0.17,0.168 -0.37,0.305 -0.604,0.411 a 3.141,3.141 0 0 1 -0.779,0.236 v 0.021 l 2.12,3.059 h -0.878 l -2.203,-2.962 h -1.053 z m -5.278,-3.093 a 79.225,79.225 0 0 1 -0.92,2.432 l -0.276,0.682 h 2.396 l -0.276,-0.683 a 66.18,66.18 0 0 1 -0.903,-2.431 z m -3.286,6.052 2.913,-7.16 h 0.757 l 2.92,7.162 h -0.948 l -0.84,-2.15 h -3.02 l -0.844,2.149 z m -4.11,-7.16 -0.002,6.37 h 3.496 v 0.79 h -4.373 l 0.001,-7.161 z m -5.28,1.106 a 79.523,79.523 0 0 1 -0.919,2.432 l -0.276,0.682 h 2.396 l -0.276,-0.683 a 65.752,65.752 0 0 1 -0.902,-2.431 h -0.022 z m -3.284,6.053 2.912,-7.16 h 0.757 l 2.921,7.16 h -0.948 l -0.84,-2.15 h -3.02 l -0.845,2.15 z m -2.369,-2.88 v 2.879 h -0.877 v -2.879 l -2.607,-4.282 h 0.954 l 2.08,3.48 h 0.025 l 2.08,-3.48 h 0.954 z m -5.436,-4.875 v -0.92 h 0.874 v 0.92 z m -0.043,7.753 10e-4,-7.16 h 0.877 l -0.001,7.16 z m -4.276,-2.895 v -0.79 h 2.511 v 3.464 a 1.972,1.972 0 0 1 -0.33,0.12 6.69,6.69 0 0 1 -0.495,0.115 6.649,6.649 0 0 1 -0.596,0.084 6.192,6.192 0 0 1 -0.63,0.033 c -0.613,0 -1.155,-0.084 -1.623,-0.252 a 3.244,3.244 0 0 1 -1.18,-0.713 2.982,2.982 0 0 1 -0.723,-1.119 4.157,4.157 0 0 1 -0.246,-1.468 c 0,-0.586 0.09,-1.118 0.27,-1.597 0.18,-0.477 0.44,-0.886 0.781,-1.226 0.342,-0.338 0.753,-0.6 1.238,-0.784 A 4.438,4.438 0 0 1 93.079,37.437 5.753,5.753 0 0 1 94,37.509 c 0.143,0.024 0.276,0.051 0.397,0.082 0.12,0.033 0.223,0.066 0.305,0.1 v 0.766 a 5.354,5.354 0 0 0 -0.738,-0.172 5.16,5.16 0 0 0 -0.836,-0.069 c -0.407,0 -0.795,0.062 -1.164,0.184 a 2.751,2.751 0 0 0 -0.978,0.56 2.72,2.72 0 0 0 -0.674,0.939 c -0.168,0.376 -0.253,0.819 -0.253,1.325 0,0.495 0.07,0.925 0.209,1.284 0.138,0.36 0.336,0.659 0.59,0.895 0.255,0.235 0.564,0.409 0.926,0.522 0.364,0.112 0.768,0.168 1.212,0.169 0.205,0 0.407,-0.011 0.608,-0.033 0.202,-0.02 0.379,-0.051 0.534,-0.09 V 41.846 Z M 87.85,41.16 c 0,0.542 -0.08,1.04 -0.234,1.494 a 3.402,3.402 0 0 1 -0.67,1.172 3.07,3.07 0 0 1 -1.047,0.77 c -0.41,0.184 -0.866,0.275 -1.372,0.275 -0.525,0 -0.993,-0.092 -1.408,-0.276 a 2.997,2.997 0 0 1 -1.05,-0.77 3.388,3.388 0 0 1 -0.658,-1.171 4.706,4.706 0 0 1 -0.228,-1.496 c 0,-0.546 0.078,-1.047 0.235,-1.502 0.158,-0.455 0.38,-0.848 0.67,-1.177 a 3.044,3.044 0 0 1 1.049,-0.767 3.32,3.32 0 0 1 1.38,-0.276 c 0.52,0 0.987,0.092 1.398,0.276 0.413,0.185 0.762,0.44 1.049,0.768 0.287,0.329 0.506,0.722 0.658,1.177 0.151,0.455 0.228,0.956 0.228,1.503 z m -0.867,0 c 0,-0.483 -0.063,-0.907 -0.19,-1.275 a 2.645,2.645 0 0 0 -0.52,-0.92 2.185,2.185 0 0 0 -0.786,-0.56 c -0.3,-0.126 -0.623,-0.19 -0.97,-0.19 -0.346,0 -0.671,0.063 -0.97,0.19 a 2.181,2.181 0 0 0 -0.787,0.559 2.65,2.65 0 0 0 -0.521,0.92 c -0.126,0.368 -0.19,0.792 -0.19,1.274 0,0.483 0.064,0.905 0.192,1.272 0.127,0.366 0.303,0.671 0.524,0.918 0.223,0.247 0.484,0.431 0.786,0.556 0.3,0.126 0.625,0.188 0.976,0.188 0.345,0 0.669,-0.062 0.965,-0.188 0.298,-0.124 0.557,-0.309 0.78,-0.555 0.221,-0.247 0.395,-0.552 0.521,-0.918 0.126,-0.367 0.19,-0.79 0.19,-1.272 z m -9.94,2.789 h 3.496 v 0.79 l -4.374,-10e-4 10e-4,-7.16 h 0.877 z m -2.484,-2.792 c 0,0.543 -0.078,1.04 -0.234,1.495 a 3.407,3.407 0 0 1 -0.67,1.172 3.07,3.07 0 0 1 -1.046,0.769 3.3,3.3 0 0 1 -1.373,0.276 c -0.525,0 -0.992,-0.092 -1.407,-0.277 a 2.993,2.993 0 0 1 -1.05,-0.769 3.378,3.378 0 0 1 -0.659,-1.172 4.69,4.69 0 0 1 -0.228,-1.495 c 0,-0.546 0.079,-1.047 0.236,-1.502 0.157,-0.455 0.38,-0.848 0.67,-1.177 a 3.042,3.042 0 0 1 1.048,-0.767 c 0.41,-0.185 0.87,-0.276 1.38,-0.276 0.521,0 0.987,0.091 1.398,0.276 0.413,0.185 0.762,0.44 1.05,0.768 0.286,0.329 0.505,0.722 0.657,1.177 0.152,0.455 0.228,0.956 0.228,1.502 z m -0.866,0 c 0,-0.482 -0.064,-0.906 -0.19,-1.274 a 2.652,2.652 0 0 0 -0.52,-0.92 2.184,2.184 0 0 0 -0.787,-0.56 c -0.3,-0.126 -0.623,-0.19 -0.97,-0.19 -0.345,0 -0.67,0.063 -0.97,0.19 a 2.18,2.18 0 0 0 -0.786,0.559 2.648,2.648 0 0 0 -0.521,0.92 c -0.127,0.368 -0.19,0.792 -0.19,1.274 0,0.483 0.063,0.905 0.191,1.273 0.128,0.365 0.303,0.67 0.524,0.917 0.223,0.247 0.485,0.432 0.786,0.556 0.3,0.126 0.625,0.188 0.976,0.188 0.345,0 0.67,-0.062 0.965,-0.188 0.298,-0.124 0.558,-0.309 0.78,-0.555 0.222,-0.247 0.395,-0.552 0.522,-0.918 0.126,-0.367 0.19,-0.79 0.19,-1.272 z m -9.497,0.41 c 0.439,0.632 0.872,1.281 1.301,1.948 h 0.031 A 32.401,32.401 0 0 1 65.46,41.386 v -3.81 h 0.883 l -0.001,7.16 h -0.878 l -2.806,-3.992 a 51.643,51.643 0 0 1 -1.297,-1.948 h -0.034 c 0.046,0.652 0.07,1.414 0.07,2.284 v 3.656 h -0.878 v -7.161 h 0.867 z m -7.756,-1.092 1.982,-2.9 H 59.39 L 56.96,41.1 59.5,44.734 H 58.521 L 56.423,41.7 h -0.021 l -2.1,3.033 h -0.99 l 2.565,-3.655 -2.408,-3.505 h 0.958 l 1.991,2.9 h 0.022 z m -7.494,3.47 h 3.674 v 0.79 l -4.551,-0.002 10e-4,-7.16 h 4.352 v 0.79 h -3.475 v 2.313 h 3.09 v 0.79 h -3.09 z m -4.388,0.788 h -0.877 v -6.371 h -2.393 v -0.79 h 5.665 v 0.79 H 44.56 Z M 91.499,30.242 c 0.26,-0.783 0.538,-1.57 0.836,-2.365 l 1.373,-3.683 h 0.877 l -2.718,7.16 h -0.76 l -2.717,-7.16 h 0.877 l 1.372,3.683 c 0.301,0.795 0.58,1.582 0.84,2.365 z m -5.07,-6.64 V 22.68 h 0.874 v 0.921 z m -0.043,7.752 v -7.16 h 0.878 l -10e-4,7.16 z m -3.511,0 H 81.997 L 82,24.981 h -2.395 v -0.79 l 5.666,0.001 v 0.79 h -2.394 z m -6.389,-6.055 a 78.664,78.664 0 0 1 -0.92,2.433 l -0.276,0.681 h 2.396 L 77.411,27.73 A 66.138,66.138 0 0 1 76.508,25.3 Z m -0.372,-1.107 h 0.756 l 2.921,7.161 h -0.948 l -0.84,-2.15 h -3.02 l -0.844,2.15 -0.938,-0.001 z m -5.843,6.046 c 0.26,-0.782 0.538,-1.57 0.836,-2.364 l 1.373,-3.683 h 0.877 l -2.718,7.16 h -0.76 l -2.717,-7.16 h 0.877 l 1.372,3.682 c 0.301,0.795 0.581,1.583 0.84,2.365 z m -3.917,-2.467 a 4.6,4.6 0 0 1 -0.235,1.495 3.407,3.407 0 0 1 -0.669,1.17 c -0.29,0.33 -0.64,0.586 -1.047,0.77 a 3.3,3.3 0 0 1 -1.373,0.276 c -0.524,0 -0.992,-0.092 -1.407,-0.276 a 2.994,2.994 0 0 1 -1.05,-0.77 3.379,3.379 0 0 1 -0.659,-1.172 4.698,4.698 0 0 1 -0.228,-1.495 c 0,-0.546 0.08,-1.047 0.236,-1.502 0.157,-0.455 0.38,-0.848 0.67,-1.177 a 3.042,3.042 0 0 1 1.049,-0.767 c 0.41,-0.185 0.87,-0.276 1.38,-0.276 0.52,0 0.986,0.092 1.398,0.276 0.413,0.185 0.762,0.44 1.048,0.768 a 3.4,3.4 0 0 1 0.658,1.177 c 0.152,0.455 0.229,0.956 0.229,1.503 z m -0.867,0 c 0,-0.483 -0.064,-0.907 -0.19,-1.275 a 2.65,2.65 0 0 0 -0.52,-0.92 2.182,2.182 0 0 0 -0.786,-0.56 c -0.3,-0.126 -0.623,-0.19 -0.97,-0.19 -0.346,0 -0.672,0.063 -0.971,0.19 a 2.181,2.181 0 0 0 -0.786,0.559 2.645,2.645 0 0 0 -0.521,0.92 c -0.126,0.368 -0.19,0.792 -0.19,1.274 0,0.483 0.063,0.905 0.191,1.273 0.128,0.365 0.304,0.67 0.525,0.917 0.223,0.247 0.484,0.432 0.785,0.556 0.3,0.126 0.625,0.188 0.976,0.188 0.346,0 0.67,-0.062 0.965,-0.188 0.298,-0.124 0.558,-0.309 0.781,-0.555 0.221,-0.247 0.395,-0.552 0.52,-0.918 0.127,-0.367 0.191,-0.79 0.191,-1.272 z m -9.496,0.409 a 67.5,67.5 0 0 1 1.3,1.949 h 0.032 a 32.24,32.24 0 0 1 -0.07,-2.13 l 10e-4,-3.81 h 0.883 l -10e-4,7.16 h -0.877 l -2.807,-3.992 a 51.63,51.63 0 0 1 -1.297,-1.948 h -0.033 c 0.045,0.652 0.069,1.414 0.069,2.284 v 3.656 h -0.878 l 10e-4,-7.161 h 0.867 z m -7.636,-0.001 c 0.438,0.632 0.872,1.281 1.3,1.948 h 0.032 a 32.61,32.61 0 0 1 -0.07,-2.129 l 0.001,-3.81 h 0.883 v 7.16 h -0.878 l -2.807,-3.992 a 51.92,51.92 0 0 1 -1.297,-1.948 h -0.033 c 0.046,0.652 0.07,1.414 0.069,2.284 v 3.656 h -0.878 l 10e-4,-7.161 h 0.867 z m -6.328,-4.585 v -0.92 H 42.9 v 0.92 z m -0.044,7.753 0.001,-7.16 h 0.878 l -0.001,7.16 z m 44.774,-14.07 c 0.596,0 1.098,-0.175 1.508,-0.527 0.407,-0.351 0.661,-0.863 0.759,-1.534 h -4.157 c 0,0.656 0.176,1.164 0.528,1.524 0.353,0.358 0.806,0.538 1.362,0.538 z m 0.009,0.823 c -0.83,0 -1.497,-0.241 -2.005,-0.726 -0.506,-0.482 -0.76,-1.226 -0.76,-2.231 l 0.022,-0.739 h 4.99 c 0,-0.95 -0.22,-1.68 -0.66,-2.198 -0.442,-0.515 -1.156,-0.773 -2.147,-0.773 -0.315,0 -0.594,0.022 -0.839,0.065 a 7.344,7.344 0 0 0 -0.839,0.209 v -0.801 c 0.3,-0.079 0.578,-0.139 0.834,-0.179 0.254,-0.042 0.566,-0.062 0.934,-0.062 1.054,0 1.917,0.291 2.587,0.872 0.671,0.583 1.007,1.505 1.007,2.77 0,0.809 -0.132,1.5 -0.393,2.07 -0.264,0.57 -0.631,1.001 -1.102,1.29 -0.472,0.289 -1.015,0.433 -1.63,0.433 z m -4.868,-3.745 c 0,-0.688 -0.152,-1.245 -0.455,-1.673 -0.303,-0.428 -0.738,-0.731 -1.305,-0.908 a 3.457,3.457 0 0 0 -0.725,-0.141 c -0.269,-0.024 -0.57,-0.037 -0.905,-0.037 h -0.667 l -10e-4,5.581 h 0.667 c 0.335,0 0.636,-0.012 0.905,-0.036 0.267,-0.025 0.508,-0.073 0.725,-0.14 0.567,-0.178 1.002,-0.49 1.305,-0.934 0.304,-0.446 0.456,-1.016 0.456,-1.712 z m 0.866,0 c 0,0.418 -0.051,0.81 -0.156,1.178 -0.102,0.368 -0.26,0.699 -0.467,0.993 -0.209,0.294 -0.47,0.548 -0.783,0.762 -0.31,0.213 -0.676,0.38 -1.093,0.497 a 4.49,4.49 0 0 1 -0.777,0.142 c -0.278,0.027 -0.58,0.04 -0.904,0.04 h -1.622 l 0.002,-7.16 H 78.6 c 0.326,0 0.627,0.012 0.905,0.04 0.278,0.027 0.537,0.073 0.775,0.142 0.418,0.117 0.782,0.282 1.094,0.492 0.313,0.21 0.572,0.46 0.777,0.746 0.205,0.289 0.358,0.61 0.46,0.969 0.101,0.36 0.152,0.746 0.152,1.159 z m -10.632,2.822 h 3.497 v 0.79 l -4.374,-10e-4 v -7.16 h 0.878 z M 68.604,10.213 V 9.292 h 0.874 v 0.921 z m -0.043,7.752 10e-4,-7.16 h 0.877 v 7.16 z m -5.349,-5.273 c 0,0.21 0.042,0.384 0.128,0.521 0.086,0.139 0.2,0.252 0.344,0.342 0.144,0.087 0.31,0.162 0.5,0.22 0.19,0.056 0.39,0.109 0.594,0.16 0.278,0.068 0.55,0.143 0.819,0.225 0.269,0.082 0.506,0.196 0.716,0.34 0.21,0.145 0.38,0.333 0.51,0.565 0.13,0.232 0.194,0.53 0.194,0.895 0,0.371 -0.07,0.691 -0.21,0.962 a 1.84,1.84 0 0 1 -0.585,0.663 2.622,2.622 0 0 1 -0.881,0.386 4.64,4.64 0 0 1 -1.113,0.126 c -0.187,0 -0.377,-0.011 -0.57,-0.035 A 6.051,6.051 0 0 1 63.1,17.968 4.08,4.08 0 0 1 62.621,17.835 c -0.142,-0.05 -0.256,-0.1 -0.338,-0.15 V 16.89 c 0.128,0.064 0.273,0.12 0.433,0.174 0.161,0.053 0.327,0.098 0.5,0.135 0.171,0.037 0.343,0.066 0.518,0.088 0.176,0.02 0.34,0.03 0.494,0.03 0.248,0 0.488,-0.02 0.714,-0.063 a 1.89,1.89 0 0 0 0.596,-0.214 c 0.172,-0.1 0.307,-0.237 0.408,-0.409 0.1,-0.174 0.15,-0.39 0.15,-0.65 a 0.979,0.979 0 0 0 -0.132,-0.53 1.07,1.07 0 0 0 -0.349,-0.346 2.123,2.123 0 0 0 -0.504,-0.223 c -0.192,-0.057 -0.391,-0.11 -0.601,-0.16 -0.28,-0.065 -0.55,-0.136 -0.816,-0.217 a 2.55,2.55 0 0 1 -0.71,-0.335 1.622,1.622 0 0 1 -0.503,-0.552 c -0.126,-0.224 -0.19,-0.513 -0.19,-0.862 0,-0.364 0.066,-0.678 0.2,-0.94 0.133,-0.263 0.314,-0.48 0.54,-0.652 0.23,-0.17 0.49,-0.298 0.787,-0.38 0.296,-0.082 0.612,-0.122 0.948,-0.122 a 4.93,4.93 0 0 1 1.976,0.397 v 0.81 a 6.29,6.29 0 0 0 -0.92,-0.306 4.374,4.374 0 0 0 -1.014,-0.123 c -0.27,0 -0.506,0.03 -0.707,0.088 -0.2,0.058 -0.366,0.142 -0.498,0.252 a 0.995,0.995 0 0 0 -0.294,0.395 1.348,1.348 0 0 0 -0.097,0.517 z m -3.405,1.215 v -3.103 h 0.878 l -0.001,7.16 h -0.877 v -3.268 h -3.74 v 3.268 H 55.19 l 0.001,-7.161 h 0.877 v 3.103 z m -9.296,3.365 c 0.596,0 1.099,-0.175 1.508,-0.528 0.408,-0.351 0.662,-0.863 0.759,-1.533 L 48.622,15.21 c 0,0.656 0.175,1.164 0.528,1.524 0.353,0.358 0.806,0.538 1.361,0.538 z m 0.01,0.822 c -0.83,0 -1.497,-0.241 -2.005,-0.725 -0.507,-0.483 -0.76,-1.227 -0.76,-2.232 l 0.022,-0.739 4.99,10e-4 c 0,-0.95 -0.22,-1.681 -0.66,-2.199 -0.442,-0.515 -1.157,-0.773 -2.148,-0.773 a 4.82,4.82 0 0 0 -0.838,0.066 7.365,7.365 0 0 0 -0.84,0.208 v -0.8 c 0.3,-0.08 0.578,-0.14 0.834,-0.18 0.254,-0.042 0.567,-0.062 0.934,-0.062 1.055,0 1.917,0.291 2.588,0.873 0.67,0.583 1.007,1.504 1.006,2.769 0,0.81 -0.132,1.5 -0.393,2.07 -0.263,0.57 -0.63,1.002 -1.102,1.29 -0.472,0.29 -1.014,0.433 -1.629,0.433 z M 44.562,17.962 H 43.685 L 43.686,11.59 H 41.292 V 10.8 l 5.666,10e-4 v 0.79 h -2.395 z"
             id="path18" />
        </g>
        <g
           id="g58"
           transform="translate(0,42)">
          <g
             id="g30">
            <g
               id="g24">
              <path
                 fill="#0094d0"
                 d="M 0.849,44.858 V 18.69 h 3.738 v 26.168 z"
                 id="path22" />
            </g>
            <g
               id="g28">
              <path
                 fill="#0094d0"
                 d="M 0.852,14.017 V 11.213 H 4.59 v 2.804 z"
                 id="path26" />
            </g>
          </g>
          <g
             id="g40">
            <g
               id="g34">
              <path
                 fill="#158035"
                 d="M 11.168,44.86 V 0 h 3.738 v 44.86 z"
                 id="path32" />
            </g>
            <g
               id="g38">
              <path
                 fill="#158035"
                 d="m 11.17,14.02 v -2.805 h 9.869 v 2.804 z"
                 id="path36" />
            </g>
          </g>
          <g
             id="g44">
            <path
               fill="#092b70"
               d="M 23.357,44.861 V 11.217 h 3.738 V 44.86 Z"
               id="path42" />
          </g>
          <g
             id="g48">
            <path
               fill="#092b70"
               d="m 23.431,14.021 v -2.804 h 9.87 v 2.804 z"
               id="path46" />
          </g>
          <g
             id="g52">
            <path
               fill="#092b70"
               d="m 23.426,44.862 v -2.804 h 9.87 v 2.804 z"
               id="path50" />
          </g>
          <g
             id="g56">
            <path
               fill="#092b70"
               d="m 23.429,29.442 v -2.804 h 9.869 v 2.804 z"
               id="path54" />
          </g>
        </g>
      </g>
    </g>
  </g>
</svg>
